<svg xmlns="http://www.w3.org/2000/svg" xmlns:xlink="http://www.w3.org/1999/xlink" version="1.1" id="Layer_1" x="0px" y="0px" width="100px" height="90.357px" viewBox="5.0 -9.0357 100.0 121.98195" enable-background="new 0 0 100 90.357" xml:space="preserve">
<path d="M27.755,37.985c-0.59,0.15-1.189,0.281-1.812,0.372c-7.471,1.098-14.188-2.523-15.004-8.087l27.053-3.971  c0.344,2.337-0.422,4.641-1.965,6.613c3.297-1.384,6.874-2.225,10.62-2.423c0.936-3.194,1.229-6.63,0.714-10.138  C45.452,7.342,33.357-1.654,20.35,0.255C7.342,2.166-1.655,14.258,0.256,27.268c1.555,10.597,9.872,18.529,19.933,20.072  C22.104,43.756,24.681,40.586,27.755,37.985z M30.188,11.29c2.125-0.312,4.1,1.158,4.413,3.282c0.312,2.125-1.157,4.101-3.283,4.413  c-2.125,0.313-4.101-1.156-4.413-3.282C26.594,13.578,28.063,11.602,30.188,11.29z M14.098,13.653  c2.125-0.312,4.1,1.159,4.412,3.283c0.313,2.125-1.157,4.1-3.282,4.413c-2.126,0.312-4.101-1.157-4.413-3.283  C10.502,15.94,11.973,13.964,14.098,13.653z"/>
<path d="M78.682,0.133C65.606-1.242,53.894,8.245,52.517,21.319c-0.348,3.311,0.011,6.532,0.938,9.522  c10.14,1.622,18.666,8.002,23.247,16.76c11.821-0.239,21.899-9.236,23.165-21.302C101.244,13.223,91.758,1.508,78.682,0.133z   M81.205,16.724c0.225-2.137,2.136-3.686,4.273-3.461c2.138,0.225,3.686,2.138,3.464,4.275c-0.227,2.136-2.138,3.685-4.275,3.46  C82.529,20.775,80.979,18.859,81.205,16.724z M65.029,15.023c0.227-2.137,2.14-3.687,4.275-3.461  c2.138,0.224,3.686,2.137,3.461,4.274c-0.224,2.136-2.137,3.687-4.274,3.46C66.354,19.072,64.808,17.159,65.029,15.023z   M74.655,38.433c-7.511-0.79-13.12-5.963-12.533-11.555l27.192,2.86C88.727,35.328,82.161,39.222,74.655,38.433z"/>
<path d="M47.862,90.355c15.444,0.197,28.13-12.162,28.33-27.606c0.199-15.446-12.161-28.131-27.607-28.332  c-15.447-0.201-28.132,12.16-28.332,27.606C20.053,77.47,32.415,90.154,47.862,90.355z M57.951,49.047  c2.523,0.031,4.539,2.104,4.511,4.628c-0.033,2.523-2.106,4.543-4.63,4.51s-4.544-2.104-4.511-4.628  C53.357,51.032,55.428,49.014,57.951,49.047z M64.214,67.909C64.129,74.512,56.869,79.774,48,79.659  c-8.872-0.113-15.994-5.563-15.908-12.167L64.214,67.909z M38.844,48.798c2.523,0.031,4.541,2.104,4.509,4.631  c-0.033,2.523-2.104,4.541-4.627,4.508c-2.526-0.033-4.542-2.104-4.51-4.628S36.321,48.765,38.844,48.798z"/>
<text x="0.0" y="106.169475" font-size="4.51785" font-weight="bold" font-family="Helvetica Neue, Helvetica, Arial-Unicode, Arial, Sans-serif" fill="#000000">Created by Rob Schill</text><text x="0.0" y="110.687325" font-size="4.51785" font-weight="bold" font-family="Helvetica Neue, Helvetica, Arial-Unicode, Arial, Sans-serif" fill="#000000">from the Noun Project</text></svg>