<svg xmlns="http://www.w3.org/2000/svg" xmlns:xlink="http://www.w3.org/1999/xlink" xmlns:sketch="http://www.bohemiancoding.com/sketch/ns" width="90px" height="90px" viewBox="4.5 -9.0 90.0 121.5" version="1.1">
    <!-- Generator: Sketch 3.2.2 (9983) - http://www.bohemiancoding.com/sketch -->
    <title>Oval-5</title>
    <desc>Created with Sketch.</desc>
    <defs/>
    <g id="Page-1" stroke="none" stroke-width="1" fill="none" fill-rule="evenodd" sketch:type="MSPage">
        <g id="Artboard-11" sketch:type="MSArtboardGroup" fill="#000000">
            <path d="M45,90 C69.8528133,90 90,69.8528133 90,45 C90,20.1471863 69.8528133,0 45,0 C20.1471863,0 0,20.1471863 0,45 C0,69.8528133 20.1471863,90 45,90 L45,90 L45,90 Z M45,80.0000001 C64.329966,80.0000001 80.0000001,64.329966 80.0000001,45 C80.0000001,25.6700337 64.329966,9.99999999 45,9.99999999 C25.6700337,9.99999999 9.99999999,25.6700337 9.99999999,45 C9.99999999,64.329966 25.6700337,80.0000001 45,80.0000001 L45,80.0000001 L45,80.0000001 Z M40,20 L40,40 L50,40 L50,20 L40,20 L40,20 Z M70.0000002,40 L40,40 L40,50 L70.0000002,50 L70.0000002,40 L70.0000002,40 Z" id="Oval-5" sketch:type="MSShapeGroup"/>
        </g>
    </g>
<text x="0.0" y="105.75" font-size="4.5" font-weight="bold" font-family="Helvetica Neue, Helvetica, Arial-Unicode, Arial, Sans-serif" fill="#000000">Created by Thomas Drach</text><text x="0.0" y="110.25" font-size="4.5" font-weight="bold" font-family="Helvetica Neue, Helvetica, Arial-Unicode, Arial, Sans-serif" fill="#000000">from the Noun Project</text></svg>