<svg xmlns="http://www.w3.org/2000/svg" xmlns:xlink="http://www.w3.org/1999/xlink" version="1.1" x="0px" y="0px" width="100px" height="100px" viewBox="5.0 -10.0 100.0 135.0" enable-background="new 0 0 100 100" xml:space="preserve">
<g id="Captions">
</g>
<g id="Your_Icon">
	<g>
		<path d="M97.502,56.503c-0.001-0.028-0.003-0.058-0.004-0.086c0-0.01,0-0.021-0.005-0.034c-0.003-0.04-0.007-0.081-0.013-0.123    c-0.007-0.042-0.014-0.083-0.021-0.127c-0.009-0.042-0.019-0.088-0.029-0.132c-0.01-0.049-0.021-0.095-0.033-0.142    c-0.001-0.008-0.005-0.016-0.006-0.024c-0.002-0.005-0.003-0.009-0.006-0.014c-0.008-0.037-0.02-0.072-0.031-0.108    c-0.016-0.053-0.034-0.107-0.055-0.161c-0.019-0.058-0.042-0.114-0.065-0.171c-0.016-0.041-0.035-0.083-0.053-0.124    c-0.005-0.01-0.009-0.021-0.014-0.031c-0.004-0.007-0.008-0.017-0.013-0.026c-0.025-0.061-0.06-0.128-0.092-0.192    c-0.036-0.072-0.076-0.143-0.116-0.213c-0.021-0.032-0.04-0.063-0.061-0.094c-0.016-0.028-0.032-0.056-0.05-0.081    c-0.024-0.037-0.044-0.073-0.066-0.108c-0.063-0.094-0.134-0.183-0.203-0.272c-0.038-0.052-0.072-0.104-0.112-0.154    c-0.011-0.012-0.018-0.022-0.028-0.035c-0.062-0.077-0.128-0.152-0.195-0.226c-0.048-0.052-0.095-0.102-0.142-0.15    c-0.021-0.02-0.044-0.041-0.064-0.062c-0.005-0.004-0.007-0.008-0.014-0.014c-0.017-0.016-0.031-0.031-0.048-0.047    c-0.041-0.04-0.081-0.075-0.12-0.112c-0.04-0.036-0.081-0.07-0.118-0.104c-0.039-0.032-0.079-0.067-0.121-0.099    c-0.029-0.025-0.062-0.051-0.096-0.077l-0.003-0.001c-0.007-0.006-0.013-0.01-0.021-0.016c-0.038-0.028-0.076-0.057-0.118-0.087    c-0.042-0.029-0.078-0.056-0.119-0.084c-0.04-0.025-0.08-0.051-0.121-0.078c-0.037-0.024-0.078-0.048-0.118-0.071    c-0.017-0.011-0.035-0.021-0.053-0.031c-0.006-0.002-0.006-0.002-0.009-0.004c-0.021-0.011-0.04-0.021-0.058-0.032    c-0.038-0.021-0.081-0.044-0.12-0.064c-0.038-0.02-0.079-0.039-0.119-0.058c-0.038-0.019-0.079-0.037-0.121-0.055    c-0.04-0.017-0.079-0.034-0.12-0.049c-0.015-0.008-0.03-0.013-0.044-0.019l-0.043,0.042c-0.039-0.047-0.073-0.094-0.118-0.137    c-1.141-1.089-1.791-2.557-1.826-4.133c-0.023-0.917,0.188-1.796,0.561-2.605c0.965-0.875,1.895-1.716,2.771-2.508    c0.044-0.043,0.089-0.088,0.131-0.137c0.03-0.038,0.062-0.08,0.092-0.122c0.004-0.007,0.006-0.015,0.01-0.02    c0.004-0.006,0.007-0.011,0.012-0.017c0.016-0.026,0.033-0.052,0.048-0.08c0.018-0.035,0.037-0.071,0.053-0.106    c0.015-0.035,0.028-0.072,0.042-0.107c0.006-0.015,0.011-0.03,0.016-0.044c0.002-0.005,0.004-0.01,0.006-0.015    c0.004-0.015,0.01-0.032,0.015-0.047c0.009-0.035,0.019-0.068,0.026-0.103c0.009-0.036,0.017-0.07,0.021-0.107    c0.006-0.034,0.013-0.069,0.016-0.105c0.003-0.015,0.004-0.03,0.005-0.044c0.002-0.003,0.001-0.008,0.003-0.012    c0-0.017,0.004-0.034,0.004-0.051c0.003-0.036,0.004-0.071,0.005-0.108c0.003-0.038,0.003-0.074,0-0.113    c0.002-0.037-0.001-0.075-0.004-0.116c0-0.028-0.003-0.055-0.004-0.085c-0.003-0.012-0.006-0.023-0.005-0.036    c-0.004-0.039-0.01-0.081-0.015-0.122c-0.005-0.042-0.013-0.084-0.021-0.127c-0.009-0.044-0.018-0.088-0.027-0.133    c-0.013-0.048-0.024-0.095-0.035-0.142c-0.003-0.006-0.004-0.012-0.003-0.016c-0.005-0.01-0.008-0.02-0.012-0.028    c-0.007-0.035-0.019-0.069-0.028-0.103c-0.016-0.053-0.035-0.108-0.054-0.162c-0.02-0.057-0.043-0.115-0.065-0.171    c-0.017-0.041-0.036-0.083-0.054-0.124c-0.006-0.009-0.008-0.019-0.014-0.029c-0.003-0.009-0.007-0.019-0.012-0.029    c-0.028-0.064-0.062-0.13-0.096-0.193c-0.036-0.072-0.075-0.144-0.116-0.215c-0.015-0.024-0.029-0.047-0.045-0.071    c-7.466,6.766-17.66,16-26.283,23.809L57.3,74.621l-3.625,3.28c-0.618,0.558-0.997,0.901-1.251,1.111l0.005,0.003    c-0.47,0.546-1.162,0.847-1.951,0.847c-0.434,0-0.89-0.089-1.355-0.267l-6.122-2.325l-0.082,0.049l0.062-0.058L8.754,64.257    c-1.187-0.452-2.337-1.219-3.332-2.203L3.417,63.87c0,0.003-0.001,0.005-0.005,0.005l-0.008,0.011    c0.001-0.003,0.002-0.004,0.006-0.005c-0.661,0.596-1.008,1.562-0.9,2.779l0.905,10.194c0.126,1.406,0.824,2.919,1.85,4.188    c1.007,1.267,2.375,2.345,3.821,2.895l40.369,15.341c0.983,0.372,1.805,0.22,2.264-0.316    c-0.046,0.057,30.143-27.282,45.285-41.006c0.044-0.042,0.089-0.087,0.13-0.135c0.034-0.04,0.064-0.079,0.093-0.122    c0.006-0.009,0.007-0.017,0.014-0.022c0.003-0.004,0.005-0.008,0.005-0.011c0.018-0.027,0.034-0.056,0.051-0.085    c0.021-0.032,0.037-0.069,0.052-0.107c0.019-0.033,0.032-0.069,0.047-0.105c0.006-0.015,0.007-0.03,0.011-0.044    c0.002-0.006,0.003-0.009,0.005-0.013c0.006-0.017,0.012-0.032,0.019-0.049c0.01-0.034,0.017-0.068,0.026-0.104    c0.008-0.034,0.014-0.069,0.02-0.106c0.008-0.032,0.013-0.068,0.019-0.104c0-0.015,0.003-0.03,0.006-0.045    c-0.002-0.005-0.001-0.008-0.002-0.012c0.003-0.017,0.005-0.035,0.004-0.052c0.003-0.035,0.007-0.07,0.006-0.108    c0.001-0.037,0.002-0.074,0.002-0.112C97.508,56.581,97.505,56.542,97.502,56.503z M50.221,92.518l0.005-0.004    c-1.02,0.791-1.896,0.897-2.729,0.581L11.613,79.46c-0.813-0.33-2.395-0.771-2.578-2.11l-0.477-5.357    c-0.097-1.114,0.79-2.216,1.843-1.813L48.144,84.52c0.957,0.363,1.755,0.225,2.22-0.274c-0.025,0.026,23.079-20.901,39.007-35.334    c0.184,2.164,1.125,4.161,2.7,5.679L50.221,92.518z"/>
	</g>
	<path d="M97.502,35.014c-0.001-0.028-0.003-0.058-0.004-0.086c0-0.01,0-0.021-0.005-0.034c-0.003-0.04-0.007-0.082-0.013-0.124   c-0.007-0.042-0.014-0.083-0.021-0.125c-0.009-0.043-0.019-0.088-0.029-0.133c-0.01-0.048-0.021-0.095-0.033-0.141   c-0.001-0.009-0.005-0.017-0.006-0.025c-0.002-0.005-0.003-0.009-0.006-0.014c-0.008-0.037-0.02-0.073-0.031-0.109   c-0.016-0.052-0.034-0.106-0.055-0.16c-0.019-0.057-0.042-0.115-0.065-0.171c-0.016-0.042-0.035-0.083-0.053-0.124   c-0.005-0.011-0.009-0.021-0.014-0.032c-0.004-0.007-0.008-0.017-0.013-0.026c-0.025-0.062-0.06-0.127-0.092-0.192   c-0.036-0.071-0.076-0.142-0.116-0.212c-0.021-0.033-0.04-0.063-0.061-0.094c-0.016-0.028-0.032-0.056-0.05-0.081   c-0.024-0.038-0.044-0.073-0.066-0.108c-0.063-0.094-0.134-0.183-0.203-0.272c-0.038-0.051-0.072-0.104-0.112-0.154   c-0.011-0.012-0.018-0.023-0.028-0.036c-0.062-0.076-0.128-0.151-0.195-0.224c-0.048-0.053-0.095-0.103-0.142-0.151   c-0.021-0.021-0.044-0.041-0.064-0.062c-0.005-0.004-0.007-0.009-0.014-0.014c-0.017-0.016-0.031-0.032-0.048-0.046   c-0.041-0.04-0.081-0.076-0.12-0.113c-0.04-0.036-0.081-0.07-0.118-0.104c-0.039-0.033-0.079-0.066-0.121-0.098   c-0.029-0.026-0.062-0.052-0.096-0.077l-0.003-0.002c-0.007-0.005-0.013-0.01-0.021-0.016c-0.038-0.029-0.076-0.057-0.118-0.087   c-0.042-0.028-0.078-0.056-0.119-0.083c-0.04-0.025-0.08-0.051-0.121-0.078c-0.037-0.024-0.078-0.048-0.118-0.072   c-0.017-0.011-0.035-0.021-0.053-0.031c-0.006-0.002-0.006-0.003-0.009-0.004c-0.021-0.011-0.04-0.022-0.058-0.033   c-0.038-0.021-0.081-0.043-0.12-0.064c-0.038-0.02-0.079-0.039-0.119-0.058c-0.038-0.019-0.079-0.037-0.121-0.055   c-0.04-0.016-0.079-0.035-0.12-0.05c-0.015-0.006-0.03-0.011-0.044-0.017l-0.043,0.041c-0.039-0.046-0.073-0.093-0.118-0.135   c-1.141-1.088-1.791-2.557-1.826-4.133c-0.023-0.917,0.188-1.796,0.561-2.605c0.965-0.875,1.895-1.716,2.771-2.508   c0.044-0.043,0.089-0.088,0.131-0.137c0.03-0.039,0.062-0.081,0.092-0.122c0.004-0.008,0.006-0.015,0.01-0.02   c0.004-0.006,0.007-0.011,0.012-0.017c0.016-0.025,0.033-0.051,0.048-0.08c0.018-0.035,0.037-0.071,0.053-0.106   c0.015-0.035,0.028-0.071,0.042-0.107c0.006-0.015,0.011-0.03,0.016-0.044c0.002-0.005,0.004-0.01,0.006-0.015   c0.004-0.016,0.01-0.032,0.015-0.048c0.009-0.036,0.019-0.068,0.026-0.103c0.009-0.036,0.017-0.07,0.021-0.106   c0.006-0.034,0.013-0.069,0.016-0.106c0.003-0.014,0.004-0.029,0.005-0.044c0.002-0.004,0.001-0.008,0.003-0.012   c0-0.017,0.004-0.035,0.004-0.051c0.003-0.036,0.004-0.071,0.005-0.108c0.003-0.038,0.003-0.074,0-0.113   c0.002-0.038-0.001-0.076-0.004-0.116c0-0.028-0.003-0.056-0.004-0.085c-0.003-0.011-0.006-0.023-0.005-0.035   c-0.004-0.04-0.01-0.082-0.015-0.123c-0.005-0.042-0.013-0.084-0.021-0.127c-0.009-0.044-0.018-0.088-0.027-0.133   c-0.013-0.048-0.024-0.094-0.035-0.141c-0.003-0.006-0.004-0.012-0.003-0.017c-0.005-0.011-0.008-0.019-0.012-0.027   c-0.007-0.035-0.019-0.07-0.028-0.103c-0.016-0.053-0.035-0.108-0.054-0.162c-0.02-0.057-0.043-0.115-0.065-0.172   c-0.017-0.041-0.036-0.083-0.054-0.124c-0.006-0.01-0.008-0.019-0.014-0.029c-0.003-0.009-0.007-0.019-0.012-0.029   c-0.028-0.064-0.062-0.13-0.096-0.194c-0.036-0.072-0.075-0.144-0.116-0.214c-0.02-0.032-0.038-0.061-0.058-0.092   c-0.015-0.026-0.032-0.053-0.049-0.081c-0.025-0.039-0.048-0.078-0.072-0.114c-0.061-0.09-0.13-0.176-0.195-0.264   c-0.04-0.053-0.077-0.107-0.118-0.159c-0.01-0.012-0.018-0.025-0.028-0.037c-0.063-0.077-0.129-0.153-0.196-0.225   c-0.047-0.053-0.095-0.102-0.144-0.152c-0.02-0.02-0.035-0.036-0.055-0.054c-0.007-0.005-0.014-0.013-0.021-0.02   c-0.017-0.016-0.031-0.034-0.05-0.05c-0.04-0.038-0.081-0.075-0.121-0.11c-0.039-0.036-0.079-0.071-0.119-0.106   c-0.039-0.033-0.077-0.065-0.118-0.097c-0.029-0.022-0.059-0.046-0.088-0.068c-0.004-0.003-0.007-0.006-0.011-0.008   c-0.006-0.006-0.013-0.011-0.019-0.015c-0.041-0.03-0.082-0.062-0.122-0.089c-0.038-0.029-0.079-0.055-0.117-0.082   c-0.042-0.028-0.08-0.053-0.122-0.079c-0.037-0.024-0.08-0.048-0.117-0.071c-0.018-0.01-0.033-0.019-0.049-0.028   c-0.002-0.002-0.008-0.004-0.011-0.006c-0.019-0.011-0.04-0.023-0.059-0.034c-0.042-0.022-0.079-0.042-0.117-0.063   c-0.041-0.02-0.081-0.039-0.121-0.058c-0.039-0.019-0.08-0.037-0.119-0.055c-0.042-0.017-0.081-0.033-0.119-0.05   c-0.018-0.006-0.031-0.011-0.047-0.017L52.702,0.888c-0.046-0.017-0.093-0.035-0.139-0.052c-0.073-0.025-0.149-0.049-0.222-0.074   c-0.077-0.024-0.153-0.046-0.228-0.066c-0.082-0.022-0.156-0.04-0.236-0.058c-0.07-0.016-0.141-0.03-0.209-0.042   c-0.003,0-0.008-0.001-0.011-0.001c-0.01-0.002-0.019-0.004-0.027-0.005c-0.09-0.016-0.177-0.028-0.265-0.039   c-0.097-0.012-0.189-0.02-0.283-0.025c-0.11-0.007-0.219-0.008-0.325-0.007c-0.013,0.002-0.022,0.003-0.034,0.004   c-0.017-0.001-0.031,0.001-0.045,0.003c-0.108,0.004-0.213,0.01-0.314,0.024c-0.119,0.014-0.221,0.051-0.333,0.076   c-0.079,0.021-0.16,0.033-0.236,0.058c-0.235,0.077-0.458,0.172-0.652,0.301c-0.113,0.073-0.219,0.153-0.316,0.243L3.417,42.38   c0,0.002-0.001,0.004-0.005,0.005l-0.008,0.01c0.001-0.003,0.002-0.004,0.006-0.004c-0.661,0.595-1.008,1.562-0.9,2.779   l0.905,10.195c0.126,1.406,0.824,2.919,1.85,4.188c1.007,1.267,2.375,2.345,3.821,2.895L49.455,77.79   c0.983,0.372,1.805,0.219,2.264-0.317c-0.046,0.056,30.143-27.283,45.285-41.006c0.044-0.042,0.089-0.087,0.13-0.136   c0.034-0.04,0.064-0.079,0.093-0.122c0.006-0.008,0.007-0.016,0.014-0.022c0.003-0.004,0.005-0.007,0.005-0.011   c0.018-0.028,0.034-0.056,0.051-0.084c0.021-0.032,0.037-0.069,0.052-0.108c0.019-0.032,0.032-0.068,0.047-0.105   c0.006-0.015,0.007-0.03,0.011-0.045c0.002-0.005,0.003-0.008,0.005-0.013c0.006-0.016,0.012-0.032,0.019-0.049   c0.01-0.033,0.017-0.068,0.026-0.103c0.008-0.035,0.014-0.07,0.02-0.107c0.008-0.032,0.013-0.068,0.019-0.104   c0-0.014,0.003-0.031,0.006-0.046c-0.002-0.004-0.001-0.007-0.002-0.011c0.003-0.016,0.005-0.034,0.004-0.051   c0.003-0.036,0.007-0.071,0.006-0.109c0.001-0.036,0.002-0.073,0.002-0.111C97.508,35.092,97.505,35.052,97.502,35.014z    M50.221,71.028l0.005-0.003c-1.02,0.79-1.896,0.896-2.729,0.58L11.613,57.97c-0.813-0.328-2.395-0.769-2.578-2.109l-0.477-5.358   c-0.097-1.114,0.79-2.215,1.843-1.814L48.144,63.03c0.957,0.363,1.755,0.225,2.22-0.273c-0.025,0.025,23.079-20.902,39.007-35.335   c0.184,2.164,1.125,4.162,2.7,5.678L50.221,71.028z"/>
</g>
<text x="0.0" y="117.5" font-size="5.0" font-weight="bold" font-family="Helvetica Neue, Helvetica, Arial-Unicode, Arial, Sans-serif" fill="#000000">Created by Diego Naive</text><text x="0.0" y="122.5" font-size="5.0" font-weight="bold" font-family="Helvetica Neue, Helvetica, Arial-Unicode, Arial, Sans-serif" fill="#000000">from the Noun Project</text></svg>