<svg xmlns="http://www.w3.org/2000/svg" xmlns:xlink="http://www.w3.org/1999/xlink" version="1.1" id="Calque_1" x="0px" y="0px" width="100px" height="100px" viewBox="5.0 -10.0 100.0 135.0" enable-background="new 0 0 100 100" xml:space="preserve">
<path d="M61.521,4.969c-7.391,0-13.382,5.992-13.382,13.383s13.382,29.102,13.382,29.102s13.383-21.71,13.383-29.102  S68.913,4.969,61.521,4.969z M61.521,27.584c-5.268,0-9.541-4.272-9.541-9.543s4.273-9.543,9.541-9.543  c5.271,0,9.544,4.272,9.544,9.543S66.792,27.584,61.521,27.584z M70.807,68.416l-3.465-26.211c1.107-1.957,2.341-4.206,3.551-6.552  l7.478,7.419l9.216,41.831L70.807,68.416z M49.847,45.905l5.087-5.074c2.21,3.974,4.087,7.049,4.585,7.857l2.003,3.249l2.005-3.249  c0.409-0.663,1.744-2.853,3.432-5.808l3.381,25.573L49.847,88.629V45.905z M20.656,43.399l12.857-12.886l-5.12,37.733L11.637,85.23  L20.656,43.399z M49.376,88.626L28.868,68.242l5.129-37.808l15.379,15.429V88.626z M93.09,94.991L70.718,72.619L49.657,93.681  L28.596,72.619L6.202,95.015L17.744,41.9l16.08-16.079l15.833,15.833l3.703-3.703c0.262,0.488,0.521,0.967,0.779,1.439l-4.482,4.481  L33.824,28.039L19.179,42.683L8.87,90.127l19.727-19.726l21.061,21.062l21.061-21.062l19.68,19.68L79.86,42.409l-8.222-8.223  c0.246-0.493,0.492-0.989,0.733-1.485l8.922,8.922l0.05,0.224L93.09,94.991z"/>
<text x="0.0" y="117.5" font-size="5.0" font-weight="bold" font-family="Helvetica Neue, Helvetica, Arial-Unicode, Arial, Sans-serif" fill="#000000">Created by Kelig Le Luron</text><text x="0.0" y="122.5" font-size="5.0" font-weight="bold" font-family="Helvetica Neue, Helvetica, Arial-Unicode, Arial, Sans-serif" fill="#000000">from the Noun Project</text></svg>