<svg xmlns="http://www.w3.org/2000/svg" xmlns:xlink="http://www.w3.org/1999/xlink" version="1.1" id="Calque_1" x="0px" y="0px" viewBox="5.0 -10.0 100.0 135.0" enable-background="new 0 0 100 100" xml:space="preserve" height="100px" width="100px">
<metadata><?xpacket begin="&#65279;" id="W5M0MpCehiHzreSzNTczkc9d"?>
<x:xmpmeta xmlns:x="adobe:ns:meta/" x:xmptk="Adobe XMP Core 5.5-c014 79.151739, 2013/04/03-12:12:15        ">
   <rdf:RDF xmlns:rdf="http://www.w3.org/1999/02/22-rdf-syntax-ns#">
      <rdf:Description xmlns:xmp="http://ns.adobe.com/xap/1.0/" xmlns:xmpGImg="http://ns.adobe.com/xap/1.0/g/img/" xmlns:xmpTPg="http://ns.adobe.com/xap/1.0/t/pg/" xmlns:stDim="http://ns.adobe.com/xap/1.0/sType/Dimensions#" xmlns:xmpG="http://ns.adobe.com/xap/1.0/g/" xmlns:dc="http://purl.org/dc/elements/1.1/" xmlns:xmpMM="http://ns.adobe.com/xap/1.0/mm/" xmlns:stEvt="http://ns.adobe.com/xap/1.0/sType/ResourceEvent#" xmlns:stRef="http://ns.adobe.com/xap/1.0/sType/ResourceRef#" rdf:about="">
         <xmp:CreatorTool>Adobe Illustrator CC (Macintosh)</xmp:CreatorTool>
         <xmp:CreateDate>2014-05-20T09:43:30+02:00</xmp:CreateDate>
         <xmp:MetadataDate>2014-05-20T09:43:30+02:00</xmp:MetadataDate>
         <xmp:ModifyDate>2014-05-20T09:43:30+02:00</xmp:ModifyDate>
         <xmp:Thumbnails>
            <rdf:Alt>
               <rdf:li rdf:parseType="Resource">
                  <xmpGImg:width>256</xmpGImg:width>
                  <xmpGImg:height>200</xmpGImg:height>
                  <xmpGImg:format>JPEG</xmpGImg:format>
                  </rdf:li>
            </rdf:Alt>
         </xmp:Thumbnails>
         <xmpTPg:MaxPageSize rdf:parseType="Resource">
            <stDim:w>100.000000</stDim:w>
            <stDim:h>100.000000</stDim:h>
            <stDim:unit>Pixels</stDim:unit>
         </xmpTPg:MaxPageSize>
         <xmpTPg:NPages>1</xmpTPg:NPages>
         <xmpTPg:HasVisibleTransparency>False</xmpTPg:HasVisibleTransparency>
         <xmpTPg:HasVisibleOverprint>False</xmpTPg:HasVisibleOverprint>
         <xmpTPg:PlateNames>
            <rdf:Seq>
               <rdf:li>Cyan</rdf:li>
               <rdf:li>Magenta</rdf:li>
               <rdf:li>Yellow</rdf:li>
               <rdf:li>Black</rdf:li>
            </rdf:Seq>
         </xmpTPg:PlateNames>
         <xmpTPg:SwatchGroups>
            <rdf:Seq>
               <rdf:li rdf:parseType="Resource">
                  <xmpG:groupName>Groupe de nuances par d&#233;faut</xmpG:groupName>
                  <xmpG:groupType>0</xmpG:groupType>
               </rdf:li>
            </rdf:Seq>
         </xmpTPg:SwatchGroups>
         <dc:format>image/svg+xml</dc:format>
         <xmpMM:DocumentID>xmp.did:f6d420f3-95c3-4ab9-8c4a-607442973fcc</xmpMM:DocumentID>
         <xmpMM:InstanceID>xmp.iid:f6d420f3-95c3-4ab9-8c4a-607442973fcc</xmpMM:InstanceID>
         <xmpMM:OriginalDocumentID>xmp.did:2ca5e5bf-976c-44da-9b30-3808fa2bf024</xmpMM:OriginalDocumentID>
         <xmpMM:History>
            <rdf:Seq>
               <rdf:li rdf:parseType="Resource">
                  <stEvt:action>saved</stEvt:action>
                  <stEvt:instanceID>xmp.iid:2ca5e5bf-976c-44da-9b30-3808fa2bf024</stEvt:instanceID>
                  <stEvt:when>2014-05-16T15:18:31+02:00</stEvt:when>
                  <stEvt:softwareAgent>Adobe Illustrator CC (Macintosh)</stEvt:softwareAgent>
                  <stEvt:changed>/</stEvt:changed>
               </rdf:li>
               <rdf:li rdf:parseType="Resource">
                  <stEvt:action>saved</stEvt:action>
                  <stEvt:instanceID>xmp.iid:f6d420f3-95c3-4ab9-8c4a-607442973fcc</stEvt:instanceID>
                  <stEvt:when>2014-05-20T09:43:30+02:00</stEvt:when>
                  <stEvt:softwareAgent>Adobe Illustrator CC (Macintosh)</stEvt:softwareAgent>
                  <stEvt:changed>/</stEvt:changed>
               </rdf:li>
            </rdf:Seq>
         </xmpMM:History>
         <xmpMM:DerivedFrom rdf:parseType="Resource">
            <stRef:instanceID>xmp.iid:2ca5e5bf-976c-44da-9b30-3808fa2bf024</stRef:instanceID>
            <stRef:documentID>xmp.did:2ca5e5bf-976c-44da-9b30-3808fa2bf024</stRef:documentID>
            <stRef:originalDocumentID>xmp.did:2ca5e5bf-976c-44da-9b30-3808fa2bf024</stRef:originalDocumentID>
         </xmpMM:DerivedFrom>
      </rdf:Description>
   </rdf:RDF>
</x:xmpmeta>
                                                                                                    
                                                                                                    
                                                                                                    
                                                                                                    
                                                                                                    
                                                                                                    
                                                                                                    
                                                                                                    
                                                                                                    
                                                                                                    
                                                                                                    
                                                                                                    
                                                                                                    
                                                                                                    
                                                                                                    
                                                                                                    
                                                                                                    
                                                                                                    
                                                                                                    
                                                                                                    
                           
<?xpacket end="w"?>
	</metadata>
<path d="M94.7,47.1l0-0.7l-0.2-0.1l-0.9-0.3l-0.1,0L90,44.9l-3.5,1.5l-0.7,0.2L62.9,57.2l-4,1.9L54,61.2l-0.1,0l-0.3-0.1l-2.8-0.7  l-5.4-1.5l-2-0.7l-0.1,0l-3.2-0.9l-0.8-0.2l-0.2-0.1l-0.4-0.1l-0.1,0l-3.7-1l-16-4.4l-0.3-0.1l-4-1.2c0,0,0-0.1-0.1-0.1  c-3.5-3.1-2.7-8.6-1-12.5l17.1,5l0.1,0l0.1,0l3.7,1.1l0.1,0l0.4,0.1l4,1.2l0.5,0.2l1.2,0.3l4.2,1.2l0.6,0.2l0.3,0.1l2.4,0.8l1.9,0.6  l1.4,0.4l0.1,0l1.2,0.3l0.6,0.2l0.4-0.2l2.5-1.2l0.4-0.2l0.2-0.1l5.2-2.3l8-3.6l0.6-0.2l3.5-1.5l14.8-6.6l0.4-0.2l3.9-1.7l0-0.2  l0.4-0.2l-0.2-2.9L51.1,15.8L11,33.8c-0.5,0.3-1,0.8-1.3,1.2c-4.5,4.1-3.1,13.1,0.1,17.4L8,53.2c-0.5,0.3-1,0.8-1.3,1.2  C1.3,59.5,4.5,71.6,9,73.8l42.9,12.8l40-17.9l0-0.2l-0.1-2.1l0-0.7l-0.2-0.1l-0.9-0.3l-0.1,0L87,64.2L51,80.5l-0.1,0l-0.2-0.1  l-35-9.5l-4-1.2c0,0,0,0-0.1-0.1c-3.6-3-2.8-8.6-1-12.6L28,62.2l3.9,1.2l17,5.1l0.1,0l1.7,0.5l0.4-0.2l3.2-1.4l17.3-7.7L86.5,53  l0.4-0.2l3.9-1.7l0-0.1l4.1-1.9L94.7,47.1z M49.3,20.5l32.2,9.7l-5.3,2.2l-31.5-9.5L49.3,20.5z M40.3,24.5l32.2,9.7l-5.3,2.2  l-31.5-9.5L40.3,24.5z"/>
<text x="0.0" y="117.5" font-size="5.0" font-weight="bold" font-family="Helvetica Neue, Helvetica, Arial-Unicode, Arial, Sans-serif" fill="#000000">Created by Les vieux gar&#231;ons</text><text x="0.0" y="122.5" font-size="5.0" font-weight="bold" font-family="Helvetica Neue, Helvetica, Arial-Unicode, Arial, Sans-serif" fill="#000000">from the Noun Project</text></svg>