<svg xmlns="http://www.w3.org/2000/svg" xmlns:xlink="http://www.w3.org/1999/xlink" xmlns:a="http://ns.adobe.com/AdobeSVGViewerExtensions/3.0/" version="1.1" x="0px" y="0px" width="100px" height="100px" viewBox="-0.259 -15.356 100.0 135.0" overflow="visible" enable-background="new -5.259 -5.356 100 100" xml:space="preserve">
<defs>
</defs>
<path display="none" d="M54.97,44.075l15.982,16.199l16.255-16.199H76.741c0-17.673-14.327-32.057-32-32.057  c-8.177,0-15.637,3.066-21.293,8.111l6.483,6.482c3.989-3.397,9.16-5.448,14.81-5.448c12.622,0,22.854,10.289,22.854,22.911H54.97z   M12.741,44.075c0,17.673,14.327,31.943,32,31.943c7.938,0,15.2-2.891,20.793-7.677l-6.493-6.493  c-3.915,3.144-8.888,5.024-14.3,5.024c-12.622,0-22.854-10.176-22.854-22.798h11.954l-15.934-15.99L1.964,44.075H12.741z"/>
<path display="none" d="M89.293,70.698V4.316H0.642v66.382h35.67v8.541H16.31v6.692h57.989v-6.692H54.273v-8.541H89.293z   M6.483,10.266h77.013v54.791H6.483V10.266z"/>
<path display="none" d="M54.709,50.036c2.277,1.742,9.035,3.331,14.461,6.279c1.789,0.972,1.942,2.412,2.077,3.283  c0.134,0.87,0.419,10.642,0.419,10.642h-52.74c0,0,0.283-9.771,0.418-10.642c0.134-0.871,0.146-2.193,2.076-3.283  c5.377-3.037,12.154-4.438,14.433-6.179c0.904-0.691,0.669-1.809,0.87-2.881s0.87-0.334,0.87-1.473c0-1.145,0.215-0.946,0.089-2.467  c-0.109-1.326-1.929-1.468-2.03-3.95c-0.022-0.522-0.938-0.871-1.474-1.674c-0.537-0.805-1.407-2.211-1.407-3.819  c0-1.607,0.335-1.205,0.335-3.216c0-2.009-0.075-3.174,1.072-7.838c0.427-1.739,1.883-3.778,3.341-4.701  c1.965-1.244,1.176,0.415,7.781-1.059c4.282-0.956,10.986,3.482,11.054,7.033c0.091,4.802,0.384,4.441,0.669,6.432  c0.201,1.406,0.603,1.071,0.603,2.679c0,1.608-0.871,3.618-1.405,4.422c-0.536,0.804-1.033,2.093-1.102,2.612  c-0.35,2.683-2.142,2.062-2.217,3.5c-0.068,1.313-0.153,1.145,0.042,2.167c0.164,0.856,0.664-0.055,0.864,1.018  C54.01,47.994,53.87,49.569,54.709,50.036z"/>
<g display="none">
	<g display="inline">
		<path d="M44.588,0.177C20.001,0.177,0,20.177,0,44.761c0,24.583,20.001,44.583,44.588,44.583    c24.585,0,44.586-20.001,44.586-44.583C89.174,20.177,69.173,0.177,44.588,0.177z M64.357,75.313    c-4.058,2.262-9.788,3.035-12.366,2.83c-6.332-0.504-5.577-4.967-5.577-5.781c0-0.815,0.333-2.594,0.999-5.333    c0.259-1.075,0.759-3.002,1.5-5.779l8.833-32.386l-4.854,0.945c-1.69,0.333-4.568,0.731-8.634,1.194    c-4.064,0.463-7.163,0.769-9.295,0.917v3c2.551,0.112,4.307,0.353,5.269,0.722c0.962,0.37,1.444,1.315,1.444,2.833    c0,0.259-0.029,0.538-0.084,0.833c-0.055,0.297-0.119,0.594-0.195,0.89L34.399,65.75c-0.519,1.89-0.908,3.408-1.167,4.555    c-0.444,2.002-0.666,3.464-0.666,4.391c0,2.059,0.512,3.696,1.522,4.927C19.111,75.104,8.172,61.188,8.172,44.761    c0-20.077,16.334-36.411,36.416-36.411c1.911,0,3.788,0.15,5.621,0.435c-1.276,0.329-2.42,0.98-3.425,1.971    c-1.5,1.481-2.251,3.277-2.251,5.388c0,2.112,0.751,3.917,2.251,5.417c1.502,1.5,3.306,2.25,5.418,2.25    c2.109,0,3.905-0.75,5.389-2.25c1.48-1.501,2.221-3.305,2.221-5.417c0-2.108-0.739-3.903-2.217-5.384    c13.672,5.248,23.406,18.505,23.406,34.001C81.001,57.554,74.363,68.817,64.357,75.313z"/>
	</g>
</g>
<path display="none" d="M88.043,64.482c-1.789-4.798-11.689-9.819-15.168-11.459c-0.836-5.754-4.846-26.99-11.477-32.489  c-4.301-3.568-11.436-5.956-18.033-7.039c-0.619-1.96-2.932-4.148-7.191-4.148c-0.174,0-0.354,0.003-0.536,0.011  c-3.059,0.122-5.246,0.981-6.504,2.554c-0.537,0.673-0.811,1.36-0.95,1.939c-7.316,1.946-15.69,6.741-20.136,14.266  c-4.974,8.42-5.286,32.315-5.297,33.432c-0.001,0.175,0.02,0.347,0.062,0.515c0.272,1.073,1.816,5.349,6.736,5.349  c2.114,0,4.215,0.175,7.004-0.739c1.852,1.889,7.404,6.723,16.411,7.596c0.815,0.078,1.637,0.117,2.443,0.117  c4.927,0,8.918-1.438,13.145-2.959c3.992-1.438,8.12-2.924,13.361-3.248c3.993-0.252,8.521,0.682,12.487,1.49  c3.029,0.618,5.892,1.202,8.157,1.202c1.105,0,4.467,0,5.585-3.27C88.374,66.921,88.544,65.829,88.043,64.482z M17.858,63.336  c-0.085-0.075-0.175-0.142-0.271-0.194c-0.036-1.337-0.209-3.014-0.421-5.023c-1.204-11.453-3.448-32.766,17.197-40.489l3.407-0.393  c13.032,2.507,23.748,6.452,30.833,29.222c0.788,3.673,1.29,6.696,1.436,8.039c0.019,0.172,0.061,0.335,0.12,0.489  c-0.463,0.258-1.138,0.374-2.105,0.374c-1.063,0-2.433-0.141-4.019-0.304c-2.518-0.259-5.648-0.582-9.528-0.582  C43.033,54.475,31.033,57.377,17.858,63.336z M59.662,23.382c2.627,2.178,4.935,8.034,6.708,14.139  c-6.432-14.36-15.033-18.456-25.15-20.75c0.07-0.014,0.146-0.026,0.212-0.042C48.007,17.592,55.407,19.852,59.662,23.382z   M16.52,63.044c-2.809,0.984-4.971,0.871-6.971,0.871c-2.155,0-3.538-2.38-3.798-2.722c0.103-7.613,1.127-24.94,4.763-31.092  c4.093-6.929,12.523-11.605,19.69-13.173c0.666,0.104,1.499,0.141,2.469,0.155c-19.928,8.435-17.709,29.651-16.496,41.177  c0.193,1.837,0.365,3.487,0.412,4.772C16.565,63.038,16.542,63.035,16.52,63.044z"/>
<path display="none" d="M37.224,52.781c-0.091,0-0.184-0.021-0.27-0.063c-0.244-0.121-0.379-0.389-0.329-0.657  c0.43-2.325,0.892-4.545,1.337-6.694c0.367-1.771,0.726-3.494,1.047-5.189c-3.396-2.13-6.705-4.146-9.875-5.572  c-0.246-0.11-0.39-0.37-0.354-0.637c0.036-0.269,0.245-0.48,0.512-0.521c3.503-0.531,7.16-0.923,10.88-1.162  c0.346-3.803,0.263-7.224-0.254-10.442c-0.043-0.265,0.094-0.527,0.334-0.644c0.246-0.119,0.534-0.062,0.714,0.133  c2.703,2.926,5.064,6.328,7.413,10.688l0.528-0.002c3.729,0,7.417,0.158,10.964,0.469c0.254,0.022,0.467,0.199,0.534,0.445  c0.067,0.245-0.023,0.507-0.231,0.656c-2.547,1.835-5.341,4.021-8.044,6.137l0.633,1.39c1.397,3.079,2.718,5.99,4.312,8.893  c0.11,0.11,0.178,0.262,0.178,0.43c0,0.336-0.272,0.61-0.609,0.61c-0.007,0.001-0.018,0.001-0.026,0c-0.11,0-0.22-0.029-0.319-0.091  l-3.477-2.123c-2.354-1.435-4.577-2.789-6.802-4.185c-2.464,2.066-5.35,4.615-8.343,7.931  C37.558,52.711,37.392,52.781,37.224,52.781z"/>
<path d="M0.564,44.44c0,24.497,19.937,44.435,44.442,44.435c24.503,0,44.441-19.938,44.441-44.435C89.447,19.937,69.51,0,45.006,0  C20.5,0,0.564,19.937,0.564,44.44z M7.376,44.44c0-20.748,16.881-37.629,37.63-37.629c20.748,0,37.626,16.881,37.626,37.629  c0,20.742-16.879,37.621-37.626,37.621C24.257,82.062,7.376,65.183,7.376,44.44z"/>
<g>
	<g>
		<path d="M64.893,43.386h-15.56V17.664c0-2.146-1.739-3.886-3.881-3.886h-0.938c-2.146,0-3.883,1.739-3.883,3.886v29.474    c-0.001,0.044-0.013,0.085-0.013,0.131v0.94c0,2.144,1.737,3.882,3.882,3.882h20.393c2.146,0,3.884-1.738,3.884-3.882v-0.94    C68.776,45.125,67.038,43.386,64.893,43.386z"/>
	</g>
</g>
<text x="-5.259" y="112.144" font-size="5.0" font-weight="bold" font-family="Helvetica Neue, Helvetica, Arial-Unicode, Arial, Sans-serif" fill="#000000">Created by Lynn Christensen</text><text x="-5.259" y="117.144" font-size="5.0" font-weight="bold" font-family="Helvetica Neue, Helvetica, Arial-Unicode, Arial, Sans-serif" fill="#000000">from the Noun Project</text></svg>