<svg xmlns="http://www.w3.org/2000/svg" xmlns:xlink="http://www.w3.org/1999/xlink" version="1.1" id="Layer_1" x="0px" y="0px" width="100px" height="100px" viewBox="5.0 -10.0 100.0 135.0" enable-background="new 0 0 100 100" xml:space="preserve">
<path d="M88.204,29.461l-6.772-1.108c-0.282,1.292-0.642,2.587-1.067,3.878l7.194,1.177C89.553,33.734,91,35.438,91,37.459v49.266  c0,0.37-0.129,0.637-0.42,0.867c-0.212,0.167-0.418,0.244-0.651,0.244c-0.091,0-0.188-0.012-0.289-0.036L67,82.43V55.23  c-0.172,0.214-0.344,0.43-0.513,0.638L63,60.156v22.249l-26,5.757V33.731l6.385-0.917c-0.439-1.277-0.821-2.574-1.128-3.878  l-7.083,1.017l-23.506-7.554c-1.569-0.506-3.238-0.236-4.569,0.734C5.745,24.12,5,25.585,5,27.259v47.947  c0,3.369,1.94,6.248,5.064,7.513l24.186,9.788c0.013,0.005,0.026,0.007,0.039,0.012c0.08,0.03,0.162,0.053,0.245,0.072  c0.036,0.009,0.072,0.021,0.108,0.028c0.118,0.021,0.238,0.034,0.358,0.034c0.144,0,0.289-0.016,0.432-0.047l29.552-6.544  l23.732,5.631c0.402,0.096,0.811,0.144,1.212,0.144c1.133,0,2.217-0.383,3.131-1.106c1.251-0.987,1.94-2.41,1.94-4.005V37.459  C95,33.468,92.142,30.104,88.204,29.461z M33,87.687l-21.435-8.675C9.959,78.361,9,76.938,9,75.206V27.259  c0-0.384,0.144-0.667,0.454-0.893c0.204-0.148,0.408-0.221,0.624-0.221c0.115,0,0.238,0.021,0.366,0.062L33,33.456V87.687z"/>
<path d="M61.776,54.037L61.776,54.037c-0.603,0-1.172-0.271-1.552-0.738c-7.076-8.703-22.253-30.224-10.396-42.08  c3.191-3.192,7.435-4.949,11.948-4.949c4.513,0,8.756,1.757,11.947,4.949c11.858,11.858-3.32,33.378-10.396,42.08  C62.948,53.766,62.378,54.037,61.776,54.037z M61.777,10.27c-3.445,0-6.685,1.341-9.12,3.777c-8.95,8.95,3.131,26.994,9.119,34.767  c5.989-7.773,18.07-25.815,9.12-34.767C68.461,11.611,65.222,10.27,61.777,10.27z M61.776,32.068c-2.425,0-4.703-0.944-6.417-2.658  c-3.538-3.538-3.538-9.295,0-12.833c1.714-1.714,3.992-2.658,6.417-2.658s4.703,0.944,6.417,2.658  c1.715,1.714,2.658,3.993,2.658,6.417c0,2.424-0.943,4.703-2.658,6.417C66.479,31.124,64.201,32.068,61.776,32.068z M61.776,17.918  c-1.355,0-2.63,0.528-3.589,1.486c-1.979,1.979-1.979,5.199,0,7.177c0.959,0.958,2.233,1.486,3.589,1.486s2.63-0.528,3.589-1.486  c0.959-0.959,1.486-2.233,1.486-3.588s-0.527-2.63-1.486-3.588C64.406,18.446,63.132,17.918,61.776,17.918z"/>
<text x="0.0" y="117.5" font-size="5.0" font-weight="bold" font-family="Helvetica Neue, Helvetica, Arial-Unicode, Arial, Sans-serif" fill="#000000">Created by Mourad Mokrane</text><text x="0.0" y="122.5" font-size="5.0" font-weight="bold" font-family="Helvetica Neue, Helvetica, Arial-Unicode, Arial, Sans-serif" fill="#000000">from the Noun Project</text></svg>