<svg xmlns="http://www.w3.org/2000/svg" xmlns:xlink="http://www.w3.org/1999/xlink" version="1.1" x="0px" y="0px" width="100px" height="100px" viewBox="5.0 -10.0 100.0 135.0" enable-background="new 0 0 100 100" xml:space="preserve">
<g id="Captions">
</g>
<g id="Your_Icon">
	<g>
		<circle cx="50" cy="22.881" r="6.5"/>
		<path d="M55.515,30.528H44.091c-5.364,0-5.719,5.057-5.719,5.057v13.4h23.256v-13.4C61.628,35.585,60.879,30.528,55.515,30.528z"/>
	</g>
	<g>
		<circle cx="21.43" cy="22.881" r="6.5"/>
		<path d="M26.944,30.528H15.521c-5.364,0-5.719,5.057-5.719,5.057v13.4h23.256v-13.4C33.058,35.585,32.309,30.528,26.944,30.528z"/>
	</g>
	<g>
		<circle cx="78.57" cy="22.881" r="6.5"/>
		<path d="M84.085,30.528H72.661c-5.364,0-5.719,5.057-5.719,5.057v13.4h23.256v-13.4C90.198,35.585,89.449,30.528,84.085,30.528z"/>
	</g>
	<g>
		<polygon points="90.198,51.385 9.802,51.385 9.802,60.332 12.566,60.332 12.566,83.619 20.387,83.619 20.387,60.403     79.612,60.403 79.612,83.619 87.434,83.619 87.434,60.332 90.198,60.332   "/>
	</g>
</g>
<text x="0.0" y="117.5" font-size="5.0" font-weight="bold" font-family="Helvetica Neue, Helvetica, Arial-Unicode, Arial, Sans-serif" fill="#000000">Created by Chok Hern&#225;ndez</text><text x="0.0" y="122.5" font-size="5.0" font-weight="bold" font-family="Helvetica Neue, Helvetica, Arial-Unicode, Arial, Sans-serif" fill="#000000">from the Noun Project</text></svg>