<svg xmlns:x="http://ns.adobe.com/Extensibility/1.0/" xmlns:i="http://ns.adobe.com/AdobeIllustrator/10.0/" xmlns:graph="http://ns.adobe.com/Graphs/1.0/" xmlns="http://www.w3.org/2000/svg" xmlns:xlink="http://www.w3.org/1999/xlink" version="1.2" baseProfile="tiny" id="Livello_1" x="0px" y="0px" width="100px" height="100px" viewBox="5.0 -10.0 100.0 135.0" xml:space="preserve">
<metadata>
	<sfw xmlns="http://ns.adobe.com/SaveForWeb/1.0/">
		<slices/>
		<sliceSourceBounds width="95.259" height="53.632" x="2.069" y="-81" bottomLeftOrigin="true"/>
	</sfw>
</metadata>
<path d="M15.37,44.598c-3.794,1.965-5.487,6.822-3.509,10.775s6.881,5.509,10.729,3.65l4.01,8.013c0,0,0.035-0.016,0.018-0.008  c-8.382,4.194-18.545,0.783-22.739-7.599c-4.195-8.384-0.85-18.554,7.532-22.748c0.017-0.008,0,0.001,0,0.001L15.37,44.598z"/>
<circle cx="24.262" cy="35.437" r="8.069"/>
<path d="M84.029,44.598c3.794,1.965,5.486,6.822,3.509,10.775s-6.881,5.509-10.729,3.65l-4.01,8.013c0,0-0.034-0.016-0.019-0.008  c8.383,4.194,18.545,0.783,22.739-7.599c4.194-8.384,0.851-18.554-7.532-22.748c-0.016-0.008,0,0.001,0,0.001L84.029,44.598z"/>
<circle cx="75.137" cy="35.437" r="8.068"/>
<rect x="26" y="53" width="48" height="5"/>
<g>
	<path d="M49.413,57.287C36.405,57.354,25.996,68,26.062,81h0.002l4.705-0.072c1.336-9.23,9.258-16.329,18.859-16.329   c9.47,0,17.307,6.907,18.802,15.954l4.569-0.035C72.983,67.523,62.41,57.223,49.413,57.287z"/>
	<path d="M73,80.518L73,80.518c-0.001,0.01,0,0.019,0,0.028C73,80.569,73,80.518,73,80.518z"/>
</g>
<text x="0.0" y="117.5" font-size="5.0" font-weight="bold" font-family="Helvetica Neue, Helvetica, Arial-Unicode, Arial, Sans-serif" fill="#000000">Created by Filippo</text><text x="0.0" y="122.5" font-size="5.0" font-weight="bold" font-family="Helvetica Neue, Helvetica, Arial-Unicode, Arial, Sans-serif" fill="#000000">from the Noun Project</text></svg>