<svg xmlns="http://www.w3.org/2000/svg" xmlns:xlink="http://www.w3.org/1999/xlink" version="1.1" id="Layer_1" x="0px" y="0px" width="50px" height="50px" viewBox="2.5 -5.0 50.0 67.5" enable-background="new 0 0 50 50" xml:space="preserve">
<g>
	<path fill="#000000" d="M19.429,16.732l-13.563-4.76C3.274,11.052,1,12.549,1,15.299v18.102c0,2.75,2.28,5.913,4.794,7.028   l13.665,6.076C21.972,47.622,24,46.284,24,43.534V23.405C24,20.655,22.02,17.652,19.429,16.732z M7.163,23.669   c-0.867,0.3-1.874-0.336-2.247-1.42c-0.375-1.084,0.023-2.206,0.891-2.506c0.869-0.3,1.876,0.337,2.25,1.421   C8.431,22.249,8.031,23.37,7.163,23.669z M11.697,31.158c-0.867,0.3-1.875-0.336-2.248-1.42c-0.375-1.084,0.023-2.206,0.892-2.506   s1.876,0.337,2.249,1.421C12.964,29.737,12.565,30.858,11.697,31.158z M16.23,39.633c-0.867,0.3-1.875-0.336-2.248-1.42   c-0.375-1.084,0.023-2.206,0.892-2.506s1.876,0.337,2.249,1.421C17.498,38.212,17.098,39.333,16.23,39.633z"/>
	<path fill="#000000" d="M44.512,11.972l-13.104,4.76C28.815,17.652,27,20.656,27,23.406v20.128c0,2.75,1.863,4.088,4.377,2.973   l13.372-6.076C47.263,39.315,49,36.151,49,33.401V15.3C49,12.55,47.104,11.052,44.512,11.972z M35.955,40.535   c-1.016,0.533-2.184,0.308-2.611-0.505s0.049-1.904,1.064-2.437c1.016-0.535,2.184-0.31,2.611,0.504   C37.447,38.91,36.971,40.002,35.955,40.535z M35.955,33.145c-1.016,0.533-2.184,0.308-2.611-0.505s0.049-1.904,1.064-2.437   c1.016-0.535,2.184-0.31,2.611,0.504C37.447,31.52,36.971,32.611,35.955,33.145z M35.955,25.754   c-1.016,0.533-2.184,0.307-2.611-0.505c-0.428-0.813,0.049-1.904,1.064-2.437c1.016-0.535,2.184-0.31,2.611,0.504   C37.447,24.129,36.971,25.221,35.955,25.754z M44.904,35.58c-1.016,0.533-2.184,0.308-2.611-0.505s0.049-1.904,1.064-2.437   c1.016-0.535,2.184-0.31,2.611,0.504C46.396,33.955,45.92,35.047,44.904,35.58z M44.904,29.189   c-1.016,0.533-2.184,0.308-2.611-0.505s0.049-1.904,1.064-2.437c1.016-0.535,2.184-0.309,2.611,0.504   C46.396,27.564,45.92,28.656,44.904,29.189z M44.904,21.799c-1.016,0.533-2.184,0.308-2.611-0.505s0.049-1.904,1.064-2.437   c1.016-0.535,2.184-0.31,2.611,0.504C46.396,20.174,45.92,21.266,44.904,21.799z"/>
	<path fill="#000000" d="M43.906,10.235c2.592-0.92,2.541-2.268-0.111-2.993L30.742,3.667c-2.652-0.726-7-0.76-9.665-0.075   L7.119,7.18c-2.664,0.685-2.72,1.989-0.125,2.899l14.072,4.935c2.596,0.91,6.838,0.901,9.43-0.019L43.906,10.235z M25.447,9.684   c-1.36,0-2.463-0.529-2.463-1.183s1.103-1.183,2.463-1.183c1.362,0,2.463,0.529,2.463,1.183S26.809,9.684,25.447,9.684z"/>
</g>
<text x="0.0" y="58.75" font-size="2.5" font-weight="bold" font-family="Helvetica Neue, Helvetica, Arial-Unicode, Arial, Sans-serif" fill="#000000">Created by Mister Pixel</text><text x="0.0" y="61.25" font-size="2.5" font-weight="bold" font-family="Helvetica Neue, Helvetica, Arial-Unicode, Arial, Sans-serif" fill="#000000">from the Noun Project</text></svg>